<?xml version="1.0" encoding="UTF-8" standalone="no"?>
<!DOCTYPE svg PUBLIC "-//W3C//DTD SVG 1.1//EN" "http://www.w3.org/Graphics/SVG/1.1/DTD/svg11.dtd">
<svg width="100%" height="100%" viewBox="0 0 500 500" version="1.1" xmlns="http://www.w3.org/2000/svg" xmlns:xlink="http://www.w3.org/1999/xlink" xml:space="preserve" xmlns:serif="http://www.serif.com/" style="fill-rule:evenodd;clip-rule:evenodd;stroke-linecap:square;stroke-linejoin:round;stroke-miterlimit:3;">
    <g id="curves">
        <g id="stroked">
            <g id="_--" serif:id="{}" transform="matrix(21.8622,0,0,21.8622,-1787.62,-3352.68)">
                <path d="M87.539,158.488L87.539,159.707C87.118,159.707 86.779,159.77 86.523,159.894C86.267,160.019 86.157,160.255 86.191,160.604L86.417,162.765C86.486,163.427 86.36,163.908 86.04,164.206C85.719,164.505 85.271,164.7 84.695,164.79C85.301,164.885 85.758,165.077 86.065,165.368C86.373,165.658 86.49,166.141 86.417,166.816L86.191,168.977C86.157,169.329 86.268,169.567 86.527,169.69C86.785,169.812 87.122,169.873 87.539,169.873L87.539,171.093C86.516,171.093 85.751,170.928 85.246,170.599C84.741,170.27 84.533,169.684 84.624,168.841L84.836,166.784C84.888,166.31 84.761,165.975 84.456,165.777C84.151,165.579 83.667,165.48 83.004,165.48L83.004,164.1C83.662,164.1 84.145,164.002 84.453,163.807C84.76,163.611 84.888,163.277 84.836,162.803L84.624,160.746C84.529,159.894 84.735,159.305 85.243,158.978C85.75,158.651 86.516,158.488 87.539,158.488ZM98.867,158.488C99.89,158.488 100.655,158.652 101.16,158.981C101.665,159.31 101.873,159.896 101.782,160.739L101.569,162.803C101.518,163.277 101.651,163.611 101.969,163.807C102.288,164.002 102.765,164.1 103.401,164.1L103.401,165.48C102.769,165.48 102.293,165.579 101.973,165.777C101.652,165.975 101.518,166.31 101.569,166.784L101.782,168.835C101.877,169.686 101.671,170.275 101.163,170.602C100.656,170.929 99.89,171.093 98.867,171.093L98.867,169.873C99.288,169.873 99.627,169.812 99.883,169.69C100.138,169.567 100.249,169.329 100.215,168.977L99.989,166.816C99.916,166.141 100.042,165.657 100.366,165.364C100.691,165.072 101.159,164.883 101.769,164.797C101.142,164.698 100.671,164.5 100.357,164.203C100.043,163.907 99.92,163.427 99.989,162.765L100.215,160.604C100.249,160.255 100.137,160.019 99.879,159.894C99.621,159.77 99.284,159.707 98.867,159.707L98.867,158.488Z" style="fill:none;stroke:rgb(237,237,237);stroke-width:1.46px;"/>
                <path d="M87.539,158.488L87.539,159.707C87.118,159.707 86.779,159.77 86.523,159.894C86.267,160.019 86.157,160.255 86.191,160.604L86.417,162.765C86.486,163.427 86.36,163.908 86.04,164.206C85.719,164.505 85.271,164.7 84.695,164.79C85.301,164.885 85.758,165.077 86.065,165.368C86.373,165.658 86.49,166.141 86.417,166.816L86.191,168.977C86.157,169.329 86.268,169.567 86.527,169.69C86.785,169.812 87.122,169.873 87.539,169.873L87.539,171.093C86.516,171.093 85.751,170.928 85.246,170.599C84.741,170.27 84.533,169.684 84.624,168.841L84.836,166.784C84.888,166.31 84.761,165.975 84.456,165.777C84.151,165.579 83.667,165.48 83.004,165.48L83.004,164.1C83.662,164.1 84.145,164.002 84.453,163.807C84.76,163.611 84.888,163.277 84.836,162.803L84.624,160.746C84.529,159.894 84.735,159.305 85.243,158.978C85.75,158.651 86.516,158.488 87.539,158.488ZM98.867,158.488C99.89,158.488 100.655,158.652 101.16,158.981C101.665,159.31 101.873,159.896 101.782,160.739L101.569,162.803C101.518,163.277 101.651,163.611 101.969,163.807C102.288,164.002 102.765,164.1 103.401,164.1L103.401,165.48C102.769,165.48 102.293,165.579 101.973,165.777C101.652,165.975 101.518,166.31 101.569,166.784L101.782,168.835C101.877,169.686 101.671,170.275 101.163,170.602C100.656,170.929 99.89,171.093 98.867,171.093L98.867,169.873C99.288,169.873 99.627,169.812 99.883,169.69C100.138,169.567 100.249,169.329 100.215,168.977L99.989,166.816C99.916,166.141 100.042,165.657 100.366,165.364C100.691,165.072 101.159,164.883 101.769,164.797C101.142,164.698 100.671,164.5 100.357,164.203C100.043,163.907 99.92,163.427 99.989,162.765L100.215,160.604C100.249,160.255 100.137,160.019 99.879,159.894C99.621,159.77 99.284,159.707 98.867,159.707L98.867,158.488Z"/>
            </g>
            <g id="_1-2" serif:id="1-2" transform="matrix(1,0,0,1,-29.2301,291.471)">
                <path d="M272.153,-102.674L272.153,-26.806L235.628,8.714L235.628,-101.689L194.025,-75.882L178.089,-101.689L239.294,-139.202L272.153,-139.202L272.153,-137.29C281.504,-141.385 292.521,-143.433 305.204,-143.433C319.213,-143.433 330.989,-140.918 340.531,-135.888C350.074,-130.858 357.29,-124.159 362.179,-115.792C367.068,-107.424 369.512,-98.211 369.512,-88.151C369.512,-79.877 368.102,-71.792 365.281,-63.894C362.461,-55.997 357.878,-47.676 351.531,-38.933C345.185,-30.189 336.794,-20.506 326.358,-9.882C315.922,0.742 303.042,12.918 287.717,26.644L374.025,26.644L369.935,55.836L245.128,55.836L245.128,28.618C261.957,12.353 275.942,-1.538 287.083,-13.055C298.224,-24.572 307.038,-34.514 313.525,-42.882C320.012,-51.249 324.595,-58.77 327.275,-65.446C329.954,-72.121 331.294,-78.749 331.294,-85.33C331.294,-94.262 328.756,-101.313 323.679,-106.484C318.602,-111.655 311.41,-114.241 302.102,-114.241C293.922,-114.241 286.989,-112.666 281.301,-109.516C278.217,-107.809 275.168,-105.528 272.153,-102.674ZM188.384,54.658L188.384,27.208L216.611,27.208L188.384,54.658Z" style="fill:none;stroke:rgb(237,237,237);stroke-width:32px;"/>
                <path d="M272.153,-102.674L272.153,-26.806L235.628,8.714L235.628,-101.689L194.025,-75.882L178.089,-101.689L239.294,-139.202L272.153,-139.202L272.153,-137.29C281.504,-141.385 292.521,-143.433 305.204,-143.433C319.213,-143.433 330.989,-140.918 340.531,-135.888C350.074,-130.858 357.29,-124.159 362.179,-115.792C367.068,-107.424 369.512,-98.211 369.512,-88.151C369.512,-79.877 368.102,-71.792 365.281,-63.894C362.461,-55.997 357.878,-47.676 351.531,-38.933C345.185,-30.189 336.794,-20.506 326.358,-9.882C315.922,0.742 303.042,12.918 287.717,26.644L374.025,26.644L369.935,55.836L245.128,55.836L245.128,28.618C261.957,12.353 275.942,-1.538 287.083,-13.055C298.224,-24.572 307.038,-34.514 313.525,-42.882C320.012,-51.249 324.595,-58.77 327.275,-65.446C329.954,-72.121 331.294,-78.749 331.294,-85.33C331.294,-94.262 328.756,-101.313 323.679,-106.484C318.602,-111.655 311.41,-114.241 302.102,-114.241C293.922,-114.241 286.989,-112.666 281.301,-109.516C278.217,-107.809 275.168,-105.528 272.153,-102.674ZM188.384,54.658L188.384,27.208L216.611,27.208L188.384,54.658Z"/>
            </g>
        </g>
        <g id="_1-21" serif:id="1-2">
            <g id="_1" serif:id="1" transform="matrix(1,0,0,1,-29.2301,291.471)">
                <path d="M235.628,8.714L235.628,-101.689L194.025,-75.882L178.089,-101.689L239.294,-139.202L272.153,-139.202L272.153,-26.806L235.628,8.714ZM188.384,54.658L188.384,27.208L216.611,27.208L188.384,54.658Z"/>
            </g>
            <g id="_2" serif:id="2" transform="matrix(1,0,0,1,40.7699,291.471)">
                <path d="M235.204,-143.433C249.213,-143.433 260.989,-140.918 270.531,-135.888C280.074,-130.858 287.29,-124.159 292.179,-115.792C297.068,-107.424 299.512,-98.211 299.512,-88.151C299.512,-79.877 298.102,-71.792 295.281,-63.894C292.461,-55.997 287.878,-47.676 281.531,-38.933C275.185,-30.189 266.794,-20.506 256.358,-9.882C245.922,0.742 233.042,12.918 217.717,26.644L304.025,26.644L299.935,55.836L175.128,55.836L175.128,28.618C191.957,12.353 205.942,-1.538 217.083,-13.055C228.224,-24.572 237.038,-34.514 243.525,-42.882C250.012,-51.249 254.595,-58.77 257.275,-65.446C259.954,-72.121 261.294,-78.749 261.294,-85.33C261.294,-94.262 258.756,-101.313 253.679,-106.484C248.602,-111.655 241.41,-114.241 232.102,-114.241C223.922,-114.241 216.989,-112.666 211.301,-109.516C205.613,-106.367 200.042,-101.266 194.589,-94.215L171.179,-111.984C178.606,-121.856 187.444,-129.565 197.692,-135.112C207.939,-140.659 220.444,-143.433 235.204,-143.433Z" style="fill:rgb(255,0,204);fill-rule:nonzero;"/>
            </g>
        </g>
    </g>
</svg>
